<svg xmlns="http://www.w3.org/2000/svg" width="169" height="76" viewBox="0 0 169 76" fill="none"><path d="M30.7103 48.4781C23.1777 48.4781 17.9629 53.6929 17.9629 61.6118C17.9629 70.4964 24.5297 75.1318 32.4486 75.1318C36.1183 75.1318 39.2086 73.9729 40.5606 73.2004L41.5263 67.7924H40.9469C39.788 68.7581 36.8909 69.7238 33.6075 69.7238C28.5857 69.7238 25.6886 67.4061 24.916 63.1569H42.1057C42.492 62.1912 42.6852 60.6461 42.6852 59.2941C42.492 52.9204 37.6635 48.4781 30.7103 48.4781ZM24.7229 59.1009C25.3023 55.4312 27.62 53.6929 30.7103 53.6929C33.9937 53.6929 35.9252 55.4312 35.9252 59.1009H24.7229Z" fill="#72308F"></path><path d="M79.3818 48.4785C75.7121 48.4785 73.2012 50.0236 71.4629 52.1482V37.2762H69.7246L64.5098 40.1733V74.3596H71.4629V56.7836C72.2355 55.6248 74.3601 54.0796 76.8709 54.0796C79.7681 54.0796 81.5063 55.6248 81.5063 59.2945V74.1665H88.6526V58.5219C88.6526 52.1482 84.9829 48.4785 79.3818 48.4785Z" fill="#72308F"></path><path d="M105.65 48.4781C98.1172 48.4781 92.9023 53.6929 92.9023 61.6118C92.9023 70.4964 99.4692 75.1318 107.388 75.1318C111.058 75.1318 114.148 73.9729 115.5 73.2004L116.466 67.7924H115.693C114.534 68.7581 111.637 69.7238 108.354 69.7238C103.332 69.7238 100.435 67.4061 99.6623 63.1569H116.852C117.238 62.1912 117.431 60.6461 117.431 59.2941C117.431 52.9204 112.603 48.4781 105.65 48.4781ZM99.6623 59.1009C100.242 55.4312 102.559 53.6929 105.65 53.6929C108.933 53.6929 110.865 55.4312 110.865 59.1009H99.6623Z" fill="#72308F"></path><path d="M128.44 54.6589V49.2509H126.702L122.26 51.7617V74.5526H129.213V59.1012C130.758 57.1697 133.655 55.8177 136.359 55.8177C137.132 55.8177 137.904 56.0109 138.484 56.204H139.063L137.904 48.6714C134.041 48.8646 130.372 50.9892 128.44 54.6589Z" fill="#72308F"></path><path d="M153.548 37.0829C147.561 37.0829 143.505 40.9457 143.505 46.5469V50.796L139.062 54.2726V55.2383H143.505V74.5526H150.458V55.2383H156.638L157.797 49.6371H150.458V46.74C150.458 43.8429 152.583 42.684 155.093 42.684C156.445 42.684 157.411 43.0703 157.797 43.2634H158.377L157.411 37.8554C156.832 37.4691 155.286 37.0829 153.548 37.0829Z" fill="#72308F"></path><path d="M169 49.2514H162.24V74.5531H169V49.2514Z" fill="#72308F"></path><path d="M14.872 54.8526L16.0309 49.2514H6.95314V43.4572H5.21486L0 46.3543V65.8617C0 73.2012 5.02172 75.3257 9.65714 75.3257C11.7817 75.3257 13.52 74.9394 14.6789 74.1669L15.6446 68.5657H15.2583C14.4857 69.1452 12.9406 69.7246 11.3954 69.7246C8.49829 69.7246 7.14629 68.1794 7.14629 65.0892V54.8526H14.872Z" fill="#72308F"></path><path d="M60.0675 54.8526L61.2264 49.2514H52.3418V43.4572H50.6035L45.3887 46.3543V65.8617C45.3887 73.2012 50.4104 75.3257 55.0458 75.3257C57.1704 75.3257 58.9087 74.9394 60.0675 74.1669L61.0332 68.5657H60.4538C59.6812 69.1452 58.1361 69.7246 56.591 69.7246C53.6938 69.7246 52.3418 68.1794 52.3418 65.0892V54.8526H60.0675Z" fill="#72308F"></path><path d="M103.525 23.9493L110.479 28.0053L113.955 25.8808V17.9619L103.525 23.9493Z" fill="#72308F"></path><path d="M131.145 8.11142L120.908 14.0988V33.0268L127.668 28.9708V17.9617L138.098 11.9743L131.145 8.11142Z" fill="#72308F"></path><path d="M138.098 4.056L131.145 0V8.112L138.098 11.9749V4.056Z" fill="#E01D40"></path></svg>